<svg width="31" height="31" viewBox="0 0 31 31" xmlns="http://www.w3.org/2000/svg">
    <path d="M15.856 27.291c-6.737 0-12.217-5.48-12.217-12.218 0-6.736 5.48-12.218 12.217-12.218s12.218 5.482 12.218 12.218c0 6.737-5.48 12.218-12.218 12.218m0-25.968c-7.593 0-13.75 6.156-13.75 13.75s6.157 13.75 13.75 13.75 13.75-6.156 13.75-13.75-6.157-13.75-13.75-13.75m4.519 14.265-6.502 4.255c-.421.276-.766.09-.766-.414v-8.714c0-.505.344-.69.765-.413l6.504 4.28c.42.277.42.73-.001 1.006m.976-2.007-7.322-4.818c-1.264-.831-2.297-.274-2.297 1.239v10.14c0 1.512 1.035 2.072 2.3 1.244l7.315-4.787c1.266-.829 1.267-2.187.004-3.018" fill="#40A0E8" fill-rule="evenodd"/>
</svg>
