<svg width="31" height="31" viewBox="0 0 31 31" xmlns="http://www.w3.org/2000/svg">
    <path d="M23.656 1.75c2.316 0 4.2 2.174 4.2 4.846v18c0 2.672-1.884 4.846-4.2 4.846h-15.6c-2.316 0-4.2-2.174-4.2-4.846v-18c0-2.672 1.884-4.846 4.2-4.846zm0 1.385h-15.6c-1.653 0-3 1.552-3 3.461v18c0 1.91 1.347 3.462 3 3.462h15.6c1.654 0 3-1.552 3-3.462v-18c0-1.91-1.346-3.461-3-3.461zm.325 20.668c.483 0 .875.282.875.63 0 .347-.392.629-.875.629H8.231c-.483 0-.875-.282-.875-.63 0-.347.392-.629.875-.629zm0-3.625c.483 0 .875.282.875.63 0 .347-.392.629-.875.629H8.231c-.483 0-.875-.282-.875-.63 0-.347.392-.629.875-.629zm-.475-10.876c.331 0 .6.271.6.605v7.25a.602.602 0 0 1-.6.604h-6c-.33 0-.6-.27-.6-.604v-7.25c0-.334.27-.605.6-.605zm-9 7.25c.36 0 .65.271.65.605 0 .334-.29.604-.65.604h-6.5c-.359 0-.65-.27-.65-.604 0-.334.291-.604.65-.604zm8.4-6.041h-4.8v6.042h4.8V10.51zm-8.4 2.266c.36 0 .65.27.65.604 0 .333-.29.604-.65.604h-6.5c-.359 0-.65-.27-.65-.604 0-.334.291-.604.65-.604zm0-3.777c.36 0 .65.271.65.605 0 .333-.29.604-.65.604h-6.5c-.359 0-.65-.27-.65-.604 0-.334.291-.605.65-.605zm-5.25-3.625c.331 0 .6.27.6.604a.602.602 0 0 1-.6.605h-1.2c-.33 0-.6-.271-.6-.605 0-.333.27-.604.6-.604zm3.6 0c.331 0 .6.27.6.604a.602.602 0 0 1-.6.605h-1.2c-.33 0-.6-.271-.6-.605 0-.333.27-.604.6-.604zm3.6 0c.331 0 .6.27.6.604a.602.602 0 0 1-.6.605h-1.2c-.33 0-.6-.271-.6-.605 0-.333.27-.604.6-.604z" fill="#40A0E8" fill-rule="evenodd"/>
</svg>
