<svg width="30" height="30" viewBox="0 0 30 30" xmlns="http://www.w3.org/2000/svg">
    <path d="M14.62 6.42c.38-.226.852-.226 1.232 0 .415.195.684.608.694 1.067v14.76c-.003.45-.255.861-.655 1.068a1.245 1.245 0 0 1-1.258-.013l-6.675-3.93H4.354A1.86 1.86 0 0 1 2.5 17.51V12.27a1.862 1.862 0 0 1 1.854-1.88h3.604l6.662-3.97zm8.376.507a.656.656 0 0 1 .927-.03c4.556 4.271 4.791 11.426.524 15.986a.656.656 0 1 1-.956-.898c3.77-4.032 3.562-10.356-.465-14.131a.656.656 0 0 1-.03-.927zm-7.832.704-6.388 3.787v6.944l6.388 3.787V7.63zm5.755 1.445a.656.656 0 0 1 .927-.03 8.274 8.274 0 0 1 .348 11.707.655.655 0 0 1-.924 0 .655.655 0 0 1 0-.923 6.964 6.964 0 0 0-.321-9.827.656.656 0 0 1-.03-.927zm-1.825 1.943a.655.655 0 0 1 .656.183 5.241 5.241 0 0 1 .223 7.41.655.655 0 1 1-.93-.925 3.93 3.93 0 0 0-.184-5.529.655.655 0 0 1 .235-1.14zm-11.628.7H4.354a.55.55 0 0 0-.543.55v5.261a.55.55 0 0 0 .543.55h3.112v-6.36z" fill="#40A0E8" fill-rule="evenodd"/>
</svg>
