<svg width="30" height="30" viewBox="0 0 30 30" xmlns="http://www.w3.org/2000/svg">
    <g fill="none" fill-rule="evenodd">
        <circle fill="#40A0E8" cx="15" cy="15" r="15"/>
        <path d="M7.18 16.466a.833.833 0 1 1 1.657-.184l.517 4.642 4.64.516a.836.836 0 0 1 .738.92.837.837 0 0 1-.922.736l-5.303-.59a.835.835 0 0 1-.737-.736zm8.645-8.827a.835.835 0 0 1 .92-.736l5.303.59a.834.834 0 0 1 .737.736l.59 5.303a.83.83 0 0 1-.736.921.833.833 0 0 1-.92-.736l-.517-4.64-4.64-.517a.836.836 0 0 1-.737-.92z" fill="#FFF"/>
    </g>
</svg>
