<?xml version="1.0" encoding="UTF-8"?>
<svg width="24px" height="24px" viewBox="0 0 24 24" version="1.1" xmlns="http://www.w3.org/2000/svg" xmlns:xlink="http://www.w3.org/1999/xlink">
    <title>75B3AD20-6F88-463F-A0CE-01AC2BA61026</title>
    <g id="DESKTOP" stroke="none" stroke-width="1" fill="none" fill-rule="evenodd">
        <g id="5.1.1-IMI-CIB_D_INSIGHTS_PaginaFoglia-Podcast-Attivo" transform="translate(-301.000000, -1675.000000)" fill="#FFFFFF">
            <g id="organism/podcast/main/index" transform="translate(270.000000, 1624.000000)">
                <g id="atom/icon/General/audio-pieno" transform="translate(31.000000, 51.000000)">
                    <path d="M11.6962146,5.13533946 C11.9998686,4.95488685 12.3778812,4.95488685 12.6815352,5.13533946 C13.0134983,5.29198741 13.2285409,5.62266615 13.2370883,5.98963342 L13.2370883,5.98963342 L13.2370883,17.7977578 C13.2345213,18.1577364 13.0327269,18.4866612 12.7129816,18.6520518 C12.5660032,18.7359966 12.4000531,18.7810918 12.2308034,18.7830784 C12.0462264,18.7864863 11.8644757,18.7374137 11.7066967,18.6415696 L11.7066967,18.6415696 L6.36604925,15.4969293 L3.48346226,15.4969293 C2.66345431,15.494042 2.00007697,14.8284793 2.00007697,14.0084662 L2.00007697,14.0084662 L2.00007697,9.81561247 C1.99604846,9.41903721 2.15029607,9.03718747 2.42875797,8.7547897 C2.70721986,8.47239199 3.08686722,8.3128005 3.48346226,8.31142618 L3.48346226,8.31142618 L6.36604925,8.31142618 L11.6962146,5.13533946 Z M18.396919,5.54152217 C18.5951964,5.33021922 18.927227,5.31965993 19.13853,5.51793737 C22.783589,8.93446607 22.971252,14.6581866 19.5578154,18.3061413 C19.4295523,18.4428305 19.2381097,18.5007088 19.0556019,18.4579743 C18.8730942,18.4152399 18.7272487,18.2783848 18.673004,18.0989612 C18.6187593,17.9195376 18.6643565,17.7248042 18.7926196,17.5881151 C21.8088801,14.3625332 21.6423525,9.30338096 18.4205038,6.28313318 C18.2092008,6.08485574 18.1986415,5.75282518 18.396919,5.54152217 Z M16.7355007,7.26059221 C16.9337781,7.04928926 17.2658087,7.03872997 17.4771117,7.23700741 C18.7573896,8.44131969 19.5061213,10.1053781 19.5582292,11.8622971 C19.610337,13.6192161 18.9615421,15.3247233 17.7548883,16.6027945 C17.550467,16.806003 17.220319,16.806003 17.0158978,16.6027945 C16.8126892,16.3983733 16.8126892,16.0682253 17.0158978,15.863804 C19.1107152,13.620016 18.9958747,10.1044921 16.7590855,8.00220322 C16.5477825,7.80392579 16.5372232,7.47189522 16.7355007,7.26059221 Z M15.2752817,8.81492345 C15.463793,8.76186237 15.6661606,8.81832559 15.7999702,8.96131852 C16.6097805,9.72367178 17.0835197,10.7765382 17.1169392,11.8882299 C17.1503587,12.9999216 16.7407202,14.0793441 15.9781665,14.8889655 C15.8797568,14.9881856 15.7457972,15.0439954 15.6060507,15.0439954 C15.4663042,15.0439954 15.3323447,14.9881856 15.2339349,14.8889655 C15.0307264,14.6845443 15.0307264,14.3543963 15.2339349,14.149975 C16.4065576,12.884816 16.3410813,10.9111728 15.0871851,9.72651433 C14.9350732,9.60316943 14.8644174,9.4053096 14.9039925,9.21351332 C14.9435675,9.0217171 15.0867704,8.8679846 15.2752817,8.81492345 Z" id="Audio"></path>
                </g>
            </g>
        </g>
    </g>
</svg>