<?xml version="1.0" encoding="UTF-8"?>
<svg width="25px" height="26px" viewBox="0 0 25 26" version="1.1" xmlns="http://www.w3.org/2000/svg" xmlns:xlink="http://www.w3.org/1999/xlink">
    <title>3DA185CA-AA1A-4007-8C27-3E4E8DDB3655</title>
    <g id="DESKTOP" stroke="none" stroke-width="1" fill="none" fill-rule="evenodd">
        <g id="5.1.1-IMI-CIB_D_INSIGHTS_PaginaFoglia-Podcast-Attivo" transform="translate(-1381.000000, -2107.000000)" fill="#BFC2C5">
            <g id="organism/podcast/player" transform="translate(0.000000, 2031.000000)">
                <g id="Group-15" transform="translate(1212.000000, 71.000000)">
                    <g id="atom/icon/General/close-menu" transform="translate(169.000000, 5.000000)">
                        <path d="M20.2223824,5.03254264 C20.6291785,5.44444483 20.592537,6.14937166 20.1405413,6.6070408 L14.0689018,12.753935 L19.9771515,18.7362729 C20.4291472,19.193942 20.4657887,19.8988689 20.0589925,20.3107711 C19.6521964,20.7226733 18.956008,20.6855719 18.5040123,20.2279028 L12.5959852,14.245867 L7.04597123,19.8659727 C6.5939755,20.3236418 5.89778716,20.3607432 5.49099101,19.948841 C5.0841949,19.5369388 5.12083639,18.832012 5.57283211,18.3743428 L11.1230685,12.7544624 L5.40944226,6.96897088 C4.95744655,6.5113018 4.92080505,5.80637492 5.32760117,5.39447271 C5.73439732,4.98257052 6.4305857,5.01967194 6.88258138,5.47734106 L12.5959852,11.2625304 L18.6674022,5.11541096 C19.1193979,4.65774185 19.8155862,4.62064044 20.2223824,5.03254264 Z" id="Combined-Shape"></path>
                    </g>
                </g>
            </g>
        </g>
    </g>
</svg>