<?xml version="1.0" encoding="UTF-8"?>
<svg width="56px" height="56px" viewBox="0 0 56 56" version="1.1" xmlns="http://www.w3.org/2000/svg" xmlns:xlink="http://www.w3.org/1999/xlink">
    <title>56EC2D7A-9685-49F9-8BBF-9AD3B2355B22</title>
    <g id="DESKTOP" stroke="none" stroke-width="1" fill="none" fill-rule="evenodd">
        <g id="5.1.1-IMI-CIB_D_INSIGHTS_PaginaFoglia-Podcast" transform="translate(-387.000000, -1658.000000)">
            <g id="organism/podcast/main/index" transform="translate(270.000000, 1624.000000)">
                <g id="Group-7" transform="translate(117.000000, 34.000000)">
                    <path d="M28,0 C12.538167,0 0,12.5360509 0,27.9994042 C0,43.4627577 12.538167,56 28,56 C43.461833,56 56,43.4627577 56,27.9994042 C56,12.5360509 43.461833,0 28,0" id="path-1-path" fill="#40A0E8"></path>
                    <path d="M34.2961196,26.1281338 L25.2414367,20.0839438 C23.6785379,19.0409816 22.4,19.7404489 22.4,21.6377447 L22.4,34.3595352 C22.4,36.2560971 23.6799851,36.9585002 25.2457781,35.9192078 L34.2917783,29.9146518 C35.8568477,28.8746255 35.8582948,27.171096 34.2961196,26.1281338" id="path-1-path-copy" fill="#FFFFFF"></path>
                </g>
            </g>
        </g>
    </g>
</svg>